# xmcd
#
# Track frame offsets: 
#        151
#        8563
#        25705
#        43652
#        55710
#        68256
#        87876
#        107389
#        129172
#        149116
#        174239
#        195072
#
# Disc length: 2937 seconds
#
# Revision: 0
# Processed by: cddbd v1.5.2PL0 Copyright (c) Steve Scherf et al.
# Submitted via: ExactAudioCopy v1.3
#
DISCID=820b770c
DTITLE=Tamayae - 快樂唱歌
DYEAR=2006
DGENRE=Folk
TTITLE0=快樂唱歌
TTITLE1=拍手歌
TTITLE2=青春飛揚
TTITLE3=宴客
TTITLE4=醇醇小米酒
TTITLE5=親愛的年青人
TTITLE6=打布球之歌
TTITLE7=星語
TTITLE8=尋
TTITLE9=父親
TTITLE10=白髮吟
TTITLE11=山美村之歌
EXTD=
EXTT0=
EXTT1=
EXTT2=
EXTT3=
EXTT4=
EXTT5=
EXTT6=
EXTT7=
EXTT8=
EXTT9=
EXTT10=
EXTT11=
PLAYORDER=
